<svg width="501" height="500" viewBox="0 0 501 500" fill="none" xmlns="http://www.w3.org/2000/svg">
<g clip-path="url(#clip0_422_480)">
<path d="M500.5 0H0.5V500H500.5V0Z" fill="white"/>
<mask id="mask0_422_480" style="mask-type:luminance" maskUnits="userSpaceOnUse" x="19" y="19" width="463" height="462">
<path d="M33.5 145H19.5V159H33.5V145Z" fill="white"/>
<path d="M33.5 159H19.5V173H33.5V159Z" fill="white"/>
<path d="M33.5 173H19.5V187H33.5V173Z" fill="white"/>
<path d="M33.5 271H19.5V285H33.5V271Z" fill="white"/>
<path d="M33.5 285H19.5V299H33.5V285Z" fill="white"/>
<path d="M33.5 299H19.5V313H33.5V299Z" fill="white"/>
<path d="M33.5 341H19.5V355H33.5V341Z" fill="white"/>
<path d="M47.5 131H33.5V145H47.5V131Z" fill="white"/>
<path d="M47.5 145H33.5V159H47.5V145Z" fill="white"/>
<path d="M47.5 187H33.5V201H47.5V187Z" fill="white"/>
<path d="M47.5 201H33.5V215H47.5V201Z" fill="white"/>
<path d="M47.5 215H33.5V229H47.5V215Z" fill="white"/>
<path d="M47.5 243H33.5V257H47.5V243Z" fill="white"/>
<path d="M47.5 257H33.5V271H47.5V257Z" fill="white"/>
<path d="M47.5 271H33.5V285H47.5V271Z" fill="white"/>
<path d="M47.5 299H33.5V313H47.5V299Z" fill="white"/>
<path d="M47.5 327H33.5V341H47.5V327Z" fill="white"/>
<path d="M47.5 341H33.5V355H47.5V341Z" fill="white"/>
<path d="M61.5 131H47.5V145H61.5V131Z" fill="white"/>
<path d="M61.5 145H47.5V159H61.5V145Z" fill="white"/>
<path d="M61.5 173H47.5V187H61.5V173Z" fill="white"/>
<path d="M61.5 201H47.5V215H61.5V201Z" fill="white"/>
<path d="M61.5 271H47.5V285H61.5V271Z" fill="white"/>
<path d="M61.5 327H47.5V341H61.5V327Z" fill="white"/>
<path d="M75.5 159H61.5V173H75.5V159Z" fill="white"/>
<path d="M75.5 201H61.5V215H75.5V201Z" fill="white"/>
<path d="M75.5 215H61.5V229H75.5V215Z" fill="white"/>
<path d="M75.5 257H61.5V271H75.5V257Z" fill="white"/>
<path d="M75.5 327H61.5V341H75.5V327Z" fill="white"/>
<path d="M75.5 341H61.5V355H75.5V341Z" fill="white"/>
<path d="M75.5 355H61.5V369H75.5V355Z" fill="white"/>
<path d="M89.5 145H75.5V159H89.5V145Z" fill="white"/>
<path d="M89.5 187H75.5V201H89.5V187Z" fill="white"/>
<path d="M89.5 201H75.5V215H89.5V201Z" fill="white"/>
<path d="M89.5 243H75.5V257H89.5V243Z" fill="white"/>
<path d="M89.5 271H75.5V285H89.5V271Z" fill="white"/>
<path d="M89.5 285H75.5V299H89.5V285Z" fill="white"/>
<path d="M89.5 355H75.5V369H89.5V355Z" fill="white"/>
<path d="M103.5 201H89.5V215H103.5V201Z" fill="white"/>
<path d="M103.5 229H89.5V243H103.5V229Z" fill="white"/>
<path d="M103.5 257H89.5V271H103.5V257Z" fill="white"/>
<path d="M103.5 271H89.5V285H103.5V271Z" fill="white"/>
<path d="M103.5 285H89.5V299H103.5V285Z" fill="white"/>
<path d="M103.5 327H89.5V341H103.5V327Z" fill="white"/>
<path d="M103.5 355H89.5V369H103.5V355Z" fill="white"/>
<path d="M117.5 131H103.5V145H117.5V131Z" fill="white"/>
<path d="M117.5 159H103.5V173H117.5V159Z" fill="white"/>
<path d="M117.5 187H103.5V201H117.5V187Z" fill="white"/>
<path d="M117.5 215H103.5V229H117.5V215Z" fill="white"/>
<path d="M117.5 243H103.5V257H117.5V243Z" fill="white"/>
<path d="M117.5 271H103.5V285H117.5V271Z" fill="white"/>
<path d="M117.5 299H103.5V313H117.5V299Z" fill="white"/>
<path d="M117.5 327H103.5V341H117.5V327Z" fill="white"/>
<path d="M117.5 355H103.5V369H117.5V355Z" fill="white"/>
<path d="M131.5 159H117.5V173H131.5V159Z" fill="white"/>
<path d="M131.5 187H117.5V201H131.5V187Z" fill="white"/>
<path d="M131.5 215H117.5V229H131.5V215Z" fill="white"/>
<path d="M131.5 229H117.5V243H131.5V229Z" fill="white"/>
<path d="M131.5 243H117.5V257H131.5V243Z" fill="white"/>
<path d="M131.5 257H117.5V271H131.5V257Z" fill="white"/>
<path d="M131.5 271H117.5V285H131.5V271Z" fill="white"/>
<path d="M131.5 327H117.5V341H131.5V327Z" fill="white"/>
<path d="M131.5 355H117.5V369H131.5V355Z" fill="white"/>
<path d="M145.5 33H131.5V47H145.5V33Z" fill="white"/>
<path d="M145.5 47H131.5V61H145.5V47Z" fill="white"/>
<path d="M145.5 61H131.5V75H145.5V61Z" fill="white"/>
<path d="M145.5 89H131.5V103H145.5V89Z" fill="white"/>
<path d="M145.5 103H131.5V117H145.5V103Z" fill="white"/>
<path d="M145.5 145H131.5V159H145.5V145Z" fill="white"/>
<path d="M145.5 215H131.5V229H145.5V215Z" fill="white"/>
<path d="M145.5 229H131.5V243H145.5V229Z" fill="white"/>
<path d="M145.5 243H131.5V257H145.5V243Z" fill="white"/>
<path d="M145.5 257H131.5V271H145.5V257Z" fill="white"/>
<path d="M145.5 271H131.5V285H145.5V271Z" fill="white"/>
<path d="M145.5 299H131.5V313H145.5V299Z" fill="white"/>
<path d="M145.5 313H131.5V327H145.5V313Z" fill="white"/>
<path d="M145.5 341H131.5V355H145.5V341Z" fill="white"/>
<path d="M145.5 439H131.5V453H145.5V439Z" fill="white"/>
<path d="M145.5 453H131.5V467H145.5V453Z" fill="white"/>
<path d="M159.5 19H145.5V33H159.5V19Z" fill="white"/>
<path d="M159.5 61H145.5V75H159.5V61Z" fill="white"/>
<path d="M159.5 117H145.5V131H159.5V117Z" fill="white"/>
<path d="M159.5 159H145.5V173H159.5V159Z" fill="white"/>
<path d="M159.5 187H145.5V201H159.5V187Z" fill="white"/>
<path d="M159.5 201H145.5V215H159.5V201Z" fill="white"/>
<path d="M159.5 271H145.5V285H159.5V271Z" fill="white"/>
<path d="M159.5 285H145.5V299H159.5V285Z" fill="white"/>
<path d="M159.5 299H145.5V313H159.5V299Z" fill="white"/>
<path d="M159.5 313H145.5V327H159.5V313Z" fill="white"/>
<path d="M159.5 341H145.5V355H159.5V341Z" fill="white"/>
<path d="M159.5 383H145.5V397H159.5V383Z" fill="white"/>
<path d="M159.5 397H145.5V411H159.5V397Z" fill="white"/>
<path d="M159.5 425H145.5V439H159.5V425Z" fill="white"/>
<path d="M159.5 439H145.5V453H159.5V439Z" fill="white"/>
<path d="M159.5 453H145.5V467H159.5V453Z" fill="white"/>
<path d="M159.5 467H145.5V481H159.5V467Z" fill="white"/>
<path d="M173.5 33H159.5V47H173.5V33Z" fill="white"/>
<path d="M173.5 47H159.5V61H173.5V47Z" fill="white"/>
<path d="M173.5 103H159.5V117H173.5V103Z" fill="white"/>
<path d="M173.5 117H159.5V131H173.5V117Z" fill="white"/>
<path d="M173.5 145H159.5V159H173.5V145Z" fill="white"/>
<path d="M173.5 187H159.5V201H173.5V187Z" fill="white"/>
<path d="M173.5 201H159.5V215H173.5V201Z" fill="white"/>
<path d="M173.5 215H159.5V229H173.5V215Z" fill="white"/>
<path d="M173.5 229H159.5V243H173.5V229Z" fill="white"/>
<path d="M173.5 327H159.5V341H173.5V327Z" fill="white"/>
<path d="M173.5 341H159.5V355H173.5V341Z" fill="white"/>
<path d="M173.5 355H159.5V369H173.5V355Z" fill="white"/>
<path d="M173.5 369H159.5V383H173.5V369Z" fill="white"/>
<path d="M173.5 397H159.5V411H173.5V397Z" fill="white"/>
<path d="M173.5 411H159.5V425H173.5V411Z" fill="white"/>
<path d="M173.5 425H159.5V439H173.5V425Z" fill="white"/>
<path d="M173.5 453H159.5V467H173.5V453Z" fill="white"/>
<path d="M173.5 467H159.5V481H173.5V467Z" fill="white"/>
<path d="M187.5 19H173.5V33H187.5V19Z" fill="white"/>
<path d="M187.5 33H173.5V47H187.5V33Z" fill="white"/>
<path d="M187.5 61H173.5V75H187.5V61Z" fill="white"/>
<path d="M187.5 75H173.5V89H187.5V75Z" fill="white"/>
<path d="M187.5 145H173.5V159H187.5V145Z" fill="white"/>
<path d="M187.5 159H173.5V173H187.5V159Z" fill="white"/>
<path d="M187.5 173H173.5V187H187.5V173Z" fill="white"/>
<path d="M187.5 187H173.5V201H187.5V187Z" fill="white"/>
<path d="M187.5 201H173.5V215H187.5V201Z" fill="white"/>
<path d="M187.5 271H173.5V285H187.5V271Z" fill="white"/>
<path d="M187.5 285H173.5V299H187.5V285Z" fill="white"/>
<path d="M187.5 299H173.5V313H187.5V299Z" fill="white"/>
<path d="M187.5 341H173.5V355H187.5V341Z" fill="white"/>
<path d="M187.5 369H173.5V383H187.5V369Z" fill="white"/>
<path d="M187.5 397H173.5V411H187.5V397Z" fill="white"/>
<path d="M187.5 425H173.5V439H187.5V425Z" fill="white"/>
<path d="M187.5 453H173.5V467H187.5V453Z" fill="white"/>
<path d="M187.5 467H173.5V481H187.5V467Z" fill="white"/>
<path d="M201.5 33H187.5V47H201.5V33Z" fill="white"/>
<path d="M201.5 61H187.5V75H201.5V61Z" fill="white"/>
<path d="M201.5 75H187.5V89H201.5V75Z" fill="white"/>
<path d="M201.5 89H187.5V103H201.5V89Z" fill="white"/>
<path d="M201.5 103H187.5V117H201.5V103Z" fill="white"/>
<path d="M201.5 117H187.5V131H201.5V117Z" fill="white"/>
<path d="M201.5 131H187.5V145H201.5V131Z" fill="white"/>
<path d="M201.5 145H187.5V159H201.5V145Z" fill="white"/>
<path d="M201.5 201H187.5V215H201.5V201Z" fill="white"/>
<path d="M201.5 215H187.5V229H201.5V215Z" fill="white"/>
<path d="M201.5 271H187.5V285H201.5V271Z" fill="white"/>
<path d="M201.5 285H187.5V299H201.5V285Z" fill="white"/>
<path d="M201.5 327H187.5V341H201.5V327Z" fill="white"/>
<path d="M201.5 355H187.5V369H201.5V355Z" fill="white"/>
<path d="M201.5 397H187.5V411H201.5V397Z" fill="white"/>
<path d="M201.5 411H187.5V425H201.5V411Z" fill="white"/>
<path d="M201.5 425H187.5V439H201.5V425Z" fill="white"/>
<path d="M201.5 453H187.5V467H201.5V453Z" fill="white"/>
<path d="M201.5 467H187.5V481H201.5V467Z" fill="white"/>
<path d="M215.5 33H201.5V47H215.5V33Z" fill="white"/>
<path d="M215.5 47H201.5V61H215.5V47Z" fill="white"/>
<path d="M215.5 61H201.5V75H215.5V61Z" fill="white"/>
<path d="M215.5 117H201.5V131H215.5V117Z" fill="white"/>
<path d="M215.5 145H201.5V159H215.5V145Z" fill="white"/>
<path d="M215.5 159H201.5V173H215.5V159Z" fill="white"/>
<path d="M215.5 201H201.5V215H215.5V201Z" fill="white"/>
<path d="M215.5 229H201.5V243H215.5V229Z" fill="white"/>
<path d="M215.5 285H201.5V299H215.5V285Z" fill="white"/>
<path d="M215.5 313H201.5V327H215.5V313Z" fill="white"/>
<path d="M215.5 327H201.5V341H215.5V327Z" fill="white"/>
<path d="M215.5 397H201.5V411H215.5V397Z" fill="white"/>
<path d="M215.5 453H201.5V467H215.5V453Z" fill="white"/>
<path d="M229.5 33H215.5V47H229.5V33Z" fill="white"/>
<path d="M229.5 61H215.5V75H229.5V61Z" fill="white"/>
<path d="M229.5 75H215.5V89H229.5V75Z" fill="white"/>
<path d="M229.5 103H215.5V117H229.5V103Z" fill="white"/>
<path d="M229.5 117H215.5V131H229.5V117Z" fill="white"/>
<path d="M229.5 131H215.5V145H229.5V131Z" fill="white"/>
<path d="M229.5 145H215.5V159H229.5V145Z" fill="white"/>
<path d="M229.5 173H215.5V187H229.5V173Z" fill="white"/>
<path d="M229.5 201H215.5V215H229.5V201Z" fill="white"/>
<path d="M229.5 215H215.5V229H229.5V215Z" fill="white"/>
<path d="M229.5 229H215.5V243H229.5V229Z" fill="white"/>
<path d="M229.5 257H215.5V271H229.5V257Z" fill="white"/>
<path d="M229.5 285H215.5V299H229.5V285Z" fill="white"/>
<path d="M229.5 313H215.5V327H229.5V313Z" fill="white"/>
<path d="M229.5 383H215.5V397H229.5V383Z" fill="white"/>
<path d="M229.5 397H215.5V411H229.5V397Z" fill="white"/>
<path d="M229.5 411H215.5V425H229.5V411Z" fill="white"/>
<path d="M229.5 439H215.5V453H229.5V439Z" fill="white"/>
<path d="M243.5 19H229.5V33H243.5V19Z" fill="white"/>
<path d="M243.5 75H229.5V89H243.5V75Z" fill="white"/>
<path d="M243.5 145H229.5V159H243.5V145Z" fill="white"/>
<path d="M243.5 159H229.5V173H243.5V159Z" fill="white"/>
<path d="M243.5 173H229.5V187H243.5V173Z" fill="white"/>
<path d="M243.5 187H229.5V201H243.5V187Z" fill="white"/>
<path d="M243.5 229H229.5V243H243.5V229Z" fill="white"/>
<path d="M243.5 243H229.5V257H243.5V243Z" fill="white"/>
<path d="M243.5 299H229.5V313H243.5V299Z" fill="white"/>
<path d="M243.5 313H229.5V327H243.5V313Z" fill="white"/>
<path d="M243.5 355H229.5V369H243.5V355Z" fill="white"/>
<path d="M243.5 369H229.5V383H243.5V369Z" fill="white"/>
<path d="M243.5 383H229.5V397H243.5V383Z" fill="white"/>
<path d="M243.5 425H229.5V439H243.5V425Z" fill="white"/>
<path d="M243.5 439H229.5V453H243.5V439Z" fill="white"/>
<path d="M257.5 19H243.5V33H257.5V19Z" fill="white"/>
<path d="M257.5 33H243.5V47H257.5V33Z" fill="white"/>
<path d="M257.5 61H243.5V75H257.5V61Z" fill="white"/>
<path d="M257.5 75H243.5V89H257.5V75Z" fill="white"/>
<path d="M257.5 103H243.5V117H257.5V103Z" fill="white"/>
<path d="M257.5 131H243.5V145H257.5V131Z" fill="white"/>
<path d="M257.5 173H243.5V187H257.5V173Z" fill="white"/>
<path d="M257.5 215H243.5V229H257.5V215Z" fill="white"/>
<path d="M257.5 243H243.5V257H257.5V243Z" fill="white"/>
<path d="M257.5 285H243.5V299H257.5V285Z" fill="white"/>
<path d="M257.5 299H243.5V313H257.5V299Z" fill="white"/>
<path d="M257.5 313H243.5V327H257.5V313Z" fill="white"/>
<path d="M257.5 327H243.5V341H257.5V327Z" fill="white"/>
<path d="M257.5 341H243.5V355H257.5V341Z" fill="white"/>
<path d="M257.5 369H243.5V383H257.5V369Z" fill="white"/>
<path d="M257.5 383H243.5V397H257.5V383Z" fill="white"/>
<path d="M257.5 411H243.5V425H257.5V411Z" fill="white"/>
<path d="M257.5 425H243.5V439H257.5V425Z" fill="white"/>
<path d="M257.5 439H243.5V453H257.5V439Z" fill="white"/>
<path d="M271.5 75H257.5V89H271.5V75Z" fill="white"/>
<path d="M271.5 89H257.5V103H271.5V89Z" fill="white"/>
<path d="M271.5 117H257.5V131H271.5V117Z" fill="white"/>
<path d="M271.5 145H257.5V159H271.5V145Z" fill="white"/>
<path d="M271.5 159H257.5V173H271.5V159Z" fill="white"/>
<path d="M271.5 173H257.5V187H271.5V173Z" fill="white"/>
<path d="M271.5 201H257.5V215H271.5V201Z" fill="white"/>
<path d="M271.5 215H257.5V229H271.5V215Z" fill="white"/>
<path d="M271.5 229H257.5V243H271.5V229Z" fill="white"/>
<path d="M271.5 243H257.5V257H271.5V243Z" fill="white"/>
<path d="M271.5 257H257.5V271H271.5V257Z" fill="white"/>
<path d="M271.5 327H257.5V341H271.5V327Z" fill="white"/>
<path d="M271.5 341H257.5V355H271.5V341Z" fill="white"/>
<path d="M271.5 355H257.5V369H271.5V355Z" fill="white"/>
<path d="M271.5 369H257.5V383H271.5V369Z" fill="white"/>
<path d="M271.5 383H257.5V397H271.5V383Z" fill="white"/>
<path d="M271.5 411H257.5V425H271.5V411Z" fill="white"/>
<path d="M271.5 425H257.5V439H271.5V425Z" fill="white"/>
<path d="M271.5 453H257.5V467H271.5V453Z" fill="white"/>
<path d="M271.5 467H257.5V481H271.5V467Z" fill="white"/>
<path d="M285.5 33H271.5V47H285.5V33Z" fill="white"/>
<path d="M285.5 47H271.5V61H285.5V47Z" fill="white"/>
<path d="M285.5 103H271.5V117H285.5V103Z" fill="white"/>
<path d="M285.5 117H271.5V131H285.5V117Z" fill="white"/>
<path d="M285.5 201H271.5V215H285.5V201Z" fill="white"/>
<path d="M285.5 215H271.5V229H285.5V215Z" fill="white"/>
<path d="M285.5 229H271.5V243H285.5V229Z" fill="white"/>
<path d="M285.5 243H271.5V257H285.5V243Z" fill="white"/>
<path d="M285.5 369H271.5V383H285.5V369Z" fill="white"/>
<path d="M285.5 383H271.5V397H285.5V383Z" fill="white"/>
<path d="M285.5 397H271.5V411H285.5V397Z" fill="white"/>
<path d="M285.5 411H271.5V425H285.5V411Z" fill="white"/>
<path d="M285.5 439H271.5V453H285.5V439Z" fill="white"/>
<path d="M299.5 33H285.5V47H299.5V33Z" fill="white"/>
<path d="M299.5 47H285.5V61H299.5V47Z" fill="white"/>
<path d="M299.5 75H285.5V89H299.5V75Z" fill="white"/>
<path d="M299.5 89H285.5V103H299.5V89Z" fill="white"/>
<path d="M299.5 131H285.5V145H299.5V131Z" fill="white"/>
<path d="M299.5 145H285.5V159H299.5V145Z" fill="white"/>
<path d="M299.5 159H285.5V173H299.5V159Z" fill="white"/>
<path d="M299.5 173H285.5V187H299.5V173Z" fill="white"/>
<path d="M299.5 187H285.5V201H299.5V187Z" fill="white"/>
<path d="M299.5 327H285.5V341H299.5V327Z" fill="white"/>
<path d="M299.5 411H285.5V425H299.5V411Z" fill="white"/>
<path d="M299.5 453H285.5V467H299.5V453Z" fill="white"/>
<path d="M299.5 467H285.5V481H299.5V467Z" fill="white"/>
<path d="M313.5 33H299.5V47H313.5V33Z" fill="white"/>
<path d="M313.5 103H299.5V117H313.5V103Z" fill="white"/>
<path d="M313.5 117H299.5V131H313.5V117Z" fill="white"/>
<path d="M313.5 131H299.5V145H313.5V131Z" fill="white"/>
<path d="M313.5 145H299.5V159H313.5V145Z" fill="white"/>
<path d="M313.5 201H299.5V215H313.5V201Z" fill="white"/>
<path d="M313.5 215H299.5V229H313.5V215Z" fill="white"/>
<path d="M313.5 229H299.5V243H313.5V229Z" fill="white"/>
<path d="M313.5 257H299.5V271H313.5V257Z" fill="white"/>
<path d="M313.5 285H299.5V299H313.5V285Z" fill="white"/>
<path d="M313.5 313H299.5V327H313.5V313Z" fill="white"/>
<path d="M313.5 327H299.5V341H313.5V327Z" fill="white"/>
<path d="M313.5 355H299.5V369H313.5V355Z" fill="white"/>
<path d="M313.5 425H299.5V439H313.5V425Z" fill="white"/>
<path d="M313.5 439H299.5V453H313.5V439Z" fill="white"/>
<path d="M313.5 467H299.5V481H313.5V467Z" fill="white"/>
<path d="M327.5 19H313.5V33H327.5V19Z" fill="white"/>
<path d="M327.5 131H313.5V145H327.5V131Z" fill="white"/>
<path d="M327.5 145H313.5V159H327.5V145Z" fill="white"/>
<path d="M327.5 173H313.5V187H327.5V173Z" fill="white"/>
<path d="M327.5 215H313.5V229H327.5V215Z" fill="white"/>
<path d="M327.5 243H313.5V257H327.5V243Z" fill="white"/>
<path d="M327.5 257H313.5V271H327.5V257Z" fill="white"/>
<path d="M327.5 271H313.5V285H327.5V271Z" fill="white"/>
<path d="M327.5 285H313.5V299H327.5V285Z" fill="white"/>
<path d="M327.5 299H313.5V313H327.5V299Z" fill="white"/>
<path d="M327.5 341H313.5V355H327.5V341Z" fill="white"/>
<path d="M327.5 383H313.5V397H327.5V383Z" fill="white"/>
<path d="M327.5 425H313.5V439H327.5V425Z" fill="white"/>
<path d="M327.5 439H313.5V453H327.5V439Z" fill="white"/>
<path d="M327.5 467H313.5V481H327.5V467Z" fill="white"/>
<path d="M341.5 47H327.5V61H341.5V47Z" fill="white"/>
<path d="M341.5 61H327.5V75H341.5V61Z" fill="white"/>
<path d="M341.5 89H327.5V103H341.5V89Z" fill="white"/>
<path d="M341.5 103H327.5V117H341.5V103Z" fill="white"/>
<path d="M341.5 159H327.5V173H341.5V159Z" fill="white"/>
<path d="M341.5 173H327.5V187H341.5V173Z" fill="white"/>
<path d="M341.5 187H327.5V201H341.5V187Z" fill="white"/>
<path d="M341.5 215H327.5V229H341.5V215Z" fill="white"/>
<path d="M341.5 229H327.5V243H341.5V229Z" fill="white"/>
<path d="M341.5 243H327.5V257H341.5V243Z" fill="white"/>
<path d="M341.5 257H327.5V271H341.5V257Z" fill="white"/>
<path d="M341.5 341H327.5V355H341.5V341Z" fill="white"/>
<path d="M341.5 383H327.5V397H341.5V383Z" fill="white"/>
<path d="M341.5 397H327.5V411H341.5V397Z" fill="white"/>
<path d="M341.5 411H327.5V425H341.5V411Z" fill="white"/>
<path d="M341.5 453H327.5V467H341.5V453Z" fill="white"/>
<path d="M341.5 467H327.5V481H341.5V467Z" fill="white"/>
<path d="M355.5 33H341.5V47H355.5V33Z" fill="white"/>
<path d="M355.5 61H341.5V75H355.5V61Z" fill="white"/>
<path d="M355.5 75H341.5V89H355.5V75Z" fill="white"/>
<path d="M355.5 89H341.5V103H355.5V89Z" fill="white"/>
<path d="M355.5 117H341.5V131H355.5V117Z" fill="white"/>
<path d="M355.5 145H341.5V159H355.5V145Z" fill="white"/>
<path d="M355.5 159H341.5V173H355.5V159Z" fill="white"/>
<path d="M355.5 173H341.5V187H355.5V173Z" fill="white"/>
<path d="M355.5 215H341.5V229H355.5V215Z" fill="white"/>
<path d="M355.5 229H341.5V243H355.5V229Z" fill="white"/>
<path d="M355.5 257H341.5V271H355.5V257Z" fill="white"/>
<path d="M355.5 271H341.5V285H355.5V271Z" fill="white"/>
<path d="M355.5 285H341.5V299H355.5V285Z" fill="white"/>
<path d="M355.5 369H341.5V383H355.5V369Z" fill="white"/>
<path d="M355.5 383H341.5V397H355.5V383Z" fill="white"/>
<path d="M355.5 411H341.5V425H355.5V411Z" fill="white"/>
<path d="M355.5 425H341.5V439H355.5V425Z" fill="white"/>
<path d="M355.5 453H341.5V467H355.5V453Z" fill="white"/>
<path d="M355.5 467H341.5V481H355.5V467Z" fill="white"/>
<path d="M369.5 19H355.5V33H369.5V19Z" fill="white"/>
<path d="M369.5 89H355.5V103H369.5V89Z" fill="white"/>
<path d="M369.5 103H355.5V117H369.5V103Z" fill="white"/>
<path d="M369.5 173H355.5V187H369.5V173Z" fill="white"/>
<path d="M369.5 187H355.5V201H369.5V187Z" fill="white"/>
<path d="M369.5 257H355.5V271H369.5V257Z" fill="white"/>
<path d="M369.5 271H355.5V285H369.5V271Z" fill="white"/>
<path d="M369.5 299H355.5V313H369.5V299Z" fill="white"/>
<path d="M369.5 327H355.5V341H369.5V327Z" fill="white"/>
<path d="M369.5 355H355.5V369H369.5V355Z" fill="white"/>
<path d="M369.5 369H355.5V383H369.5V369Z" fill="white"/>
<path d="M369.5 383H355.5V397H369.5V383Z" fill="white"/>
<path d="M369.5 397H355.5V411H369.5V397Z" fill="white"/>
<path d="M369.5 411H355.5V425H369.5V411Z" fill="white"/>
<path d="M369.5 425H355.5V439H369.5V425Z" fill="white"/>
<path d="M369.5 453H355.5V467H369.5V453Z" fill="white"/>
<path d="M369.5 467H355.5V481H369.5V467Z" fill="white"/>
<path d="M383.5 131H369.5V145H383.5V131Z" fill="white"/>
<path d="M383.5 145H369.5V159H383.5V145Z" fill="white"/>
<path d="M383.5 159H369.5V173H383.5V159Z" fill="white"/>
<path d="M383.5 201H369.5V215H383.5V201Z" fill="white"/>
<path d="M383.5 271H369.5V285H383.5V271Z" fill="white"/>
<path d="M383.5 285H369.5V299H383.5V285Z" fill="white"/>
<path d="M383.5 313H369.5V327H383.5V313Z" fill="white"/>
<path d="M383.5 341H369.5V355H383.5V341Z" fill="white"/>
<path d="M383.5 355H369.5V369H383.5V355Z" fill="white"/>
<path d="M383.5 411H369.5V425H383.5V411Z" fill="white"/>
<path d="M383.5 425H369.5V439H383.5V425Z" fill="white"/>
<path d="M397.5 187H383.5V201H397.5V187Z" fill="white"/>
<path d="M397.5 201H383.5V215H397.5V201Z" fill="white"/>
<path d="M397.5 229H383.5V243H397.5V229Z" fill="white"/>
<path d="M397.5 243H383.5V257H397.5V243Z" fill="white"/>
<path d="M397.5 285H383.5V299H397.5V285Z" fill="white"/>
<path d="M397.5 341H383.5V355H397.5V341Z" fill="white"/>
<path d="M397.5 355H383.5V369H397.5V355Z" fill="white"/>
<path d="M397.5 383H383.5V397H397.5V383Z" fill="white"/>
<path d="M397.5 411H383.5V425H397.5V411Z" fill="white"/>
<path d="M411.5 131H397.5V145H411.5V131Z" fill="white"/>
<path d="M411.5 159H397.5V173H411.5V159Z" fill="white"/>
<path d="M411.5 173H397.5V187H411.5V173Z" fill="white"/>
<path d="M411.5 215H397.5V229H411.5V215Z" fill="white"/>
<path d="M411.5 243H397.5V257H411.5V243Z" fill="white"/>
<path d="M411.5 257H397.5V271H411.5V257Z" fill="white"/>
<path d="M411.5 313H397.5V327H411.5V313Z" fill="white"/>
<path d="M411.5 327H397.5V341H411.5V327Z" fill="white"/>
<path d="M411.5 341H397.5V355H411.5V341Z" fill="white"/>
<path d="M411.5 355H397.5V369H411.5V355Z" fill="white"/>
<path d="M411.5 411H397.5V425H411.5V411Z" fill="white"/>
<path d="M411.5 425H397.5V439H411.5V425Z" fill="white"/>
<path d="M411.5 439H397.5V453H411.5V439Z" fill="white"/>
<path d="M411.5 453H397.5V467H411.5V453Z" fill="white"/>
<path d="M411.5 467H397.5V481H411.5V467Z" fill="white"/>
<path d="M425.5 187H411.5V201H425.5V187Z" fill="white"/>
<path d="M425.5 215H411.5V229H425.5V215Z" fill="white"/>
<path d="M425.5 243H411.5V257H425.5V243Z" fill="white"/>
<path d="M425.5 257H411.5V271H425.5V257Z" fill="white"/>
<path d="M425.5 285H411.5V299H425.5V285Z" fill="white"/>
<path d="M425.5 299H411.5V313H425.5V299Z" fill="white"/>
<path d="M425.5 313H411.5V327H425.5V313Z" fill="white"/>
<path d="M425.5 327H411.5V341H425.5V327Z" fill="white"/>
<path d="M425.5 341H411.5V355H425.5V341Z" fill="white"/>
<path d="M425.5 355H411.5V369H425.5V355Z" fill="white"/>
<path d="M425.5 369H411.5V383H425.5V369Z" fill="white"/>
<path d="M425.5 383H411.5V397H425.5V383Z" fill="white"/>
<path d="M425.5 397H411.5V411H425.5V397Z" fill="white"/>
<path d="M425.5 411H411.5V425H425.5V411Z" fill="white"/>
<path d="M425.5 439H411.5V453H425.5V439Z" fill="white"/>
<path d="M425.5 453H411.5V467H425.5V453Z" fill="white"/>
<path d="M439.5 131H425.5V145H439.5V131Z" fill="white"/>
<path d="M439.5 145H425.5V159H439.5V145Z" fill="white"/>
<path d="M439.5 159H425.5V173H439.5V159Z" fill="white"/>
<path d="M439.5 173H425.5V187H439.5V173Z" fill="white"/>
<path d="M439.5 215H425.5V229H439.5V215Z" fill="white"/>
<path d="M439.5 243H425.5V257H439.5V243Z" fill="white"/>
<path d="M439.5 271H425.5V285H439.5V271Z" fill="white"/>
<path d="M439.5 299H425.5V313H439.5V299Z" fill="white"/>
<path d="M439.5 341H425.5V355H439.5V341Z" fill="white"/>
<path d="M439.5 397H425.5V411H439.5V397Z" fill="white"/>
<path d="M439.5 453H425.5V467H439.5V453Z" fill="white"/>
<path d="M439.5 467H425.5V481H439.5V467Z" fill="white"/>
<path d="M453.5 131H439.5V145H453.5V131Z" fill="white"/>
<path d="M453.5 159H439.5V173H453.5V159Z" fill="white"/>
<path d="M453.5 187H439.5V201H453.5V187Z" fill="white"/>
<path d="M453.5 201H439.5V215H453.5V201Z" fill="white"/>
<path d="M453.5 215H439.5V229H453.5V215Z" fill="white"/>
<path d="M453.5 229H439.5V243H453.5V229Z" fill="white"/>
<path d="M453.5 243H439.5V257H453.5V243Z" fill="white"/>
<path d="M453.5 257H439.5V271H453.5V257Z" fill="white"/>
<path d="M453.5 271H439.5V285H453.5V271Z" fill="white"/>
<path d="M453.5 299H439.5V313H453.5V299Z" fill="white"/>
<path d="M453.5 327H439.5V341H453.5V327Z" fill="white"/>
<path d="M453.5 355H439.5V369H453.5V355Z" fill="white"/>
<path d="M453.5 383H439.5V397H453.5V383Z" fill="white"/>
<path d="M453.5 397H439.5V411H453.5V397Z" fill="white"/>
<path d="M467.5 131H453.5V145H467.5V131Z" fill="white"/>
<path d="M467.5 159H453.5V173H467.5V159Z" fill="white"/>
<path d="M467.5 229H453.5V243H467.5V229Z" fill="white"/>
<path d="M467.5 243H453.5V257H467.5V243Z" fill="white"/>
<path d="M467.5 271H453.5V285H467.5V271Z" fill="white"/>
<path d="M467.5 285H453.5V299H467.5V285Z" fill="white"/>
<path d="M467.5 299H453.5V313H467.5V299Z" fill="white"/>
<path d="M467.5 327H453.5V341H467.5V327Z" fill="white"/>
<path d="M467.5 355H453.5V369H467.5V355Z" fill="white"/>
<path d="M467.5 383H453.5V397H467.5V383Z" fill="white"/>
<path d="M467.5 397H453.5V411H467.5V397Z" fill="white"/>
<path d="M467.5 411H453.5V425H467.5V411Z" fill="white"/>
<path d="M467.5 467H453.5V481H467.5V467Z" fill="white"/>
<path d="M481.5 159H467.5V173H481.5V159Z" fill="white"/>
<path d="M481.5 173H467.5V187H481.5V173Z" fill="white"/>
<path d="M481.5 187H467.5V201H481.5V187Z" fill="white"/>
<path d="M481.5 201H467.5V215H481.5V201Z" fill="white"/>
<path d="M481.5 271H467.5V285H481.5V271Z" fill="white"/>
<path d="M481.5 285H467.5V299H481.5V285Z" fill="white"/>
<path d="M481.5 313H467.5V327H481.5V313Z" fill="white"/>
<path d="M481.5 341H467.5V355H481.5V341Z" fill="white"/>
<path d="M481.5 411H467.5V425H481.5V411Z" fill="white"/>
<path d="M481.5 439H467.5V453H481.5V439Z" fill="white"/>
<path fill-rule="evenodd" clip-rule="evenodd" d="M19.5 19V117H117.5V19H19.5ZM33.5 33H103.5V103H33.5V33Z" fill="white"/>
<path d="M89.5 47H47.5V89H89.5V47Z" fill="white"/>
<path fill-rule="evenodd" clip-rule="evenodd" d="M481.5 19L383.5 19V117H481.5V19ZM467.5 33V103H397.5V33L467.5 33Z" fill="white"/>
<path d="M453.5 89V47H411.5V89H453.5Z" fill="white"/>
<path fill-rule="evenodd" clip-rule="evenodd" d="M19.5 481H117.5V383H19.5L19.5 481ZM33.5 467L33.5 397H103.5V467H33.5Z" fill="white"/>
<path d="M47.5 411V453H89.5V411H47.5Z" fill="white"/>
</mask>
<g mask="url(#mask0_422_480)">
<path d="M500.5 0H0.5V500H500.5V0Z" fill="black"/>
</g>
</g>
<defs>
<clipPath id="clip0_422_480">
<rect width="500" height="500" fill="white" transform="translate(0.5)"/>
</clipPath>
</defs>
</svg>
