<svg width="431" height="342" viewBox="0 0 431 342" fill="none" xmlns="http://www.w3.org/2000/svg">
<path d="M58.1579 50L55 43.2603L55.3158 42.6027L56.8947 40.137L58.4737 38.6575L60.5263 38L67 42.9315L64.3158 43.7534L61.9474 45.3973L60.5263 46.8767L58.1579 50Z" fill="#2A8ADA"/>
<path d="M13.3242 18.9662L6.0951 20.7374L5.51249 20.2984L3.4053 18.2655L2.26517 16.4265L2.02404 14.2847L8.13208 8.90694L8.41021 11.7004L9.55631 14.3457L10.7275 16.0299L13.3242 18.9662Z" fill="#2A8ADA"/>
<path d="M148.823 14.8543L154.807 4.70246L155.949 4.52733L160.583 4.38646L163.928 5.1273L166.622 7.22192L165.965 20.0904L162.491 17.3174L158.225 15.6918L155.022 15.1573L148.823 14.8543Z" fill="#2A8ADA"/>
<path d="M70.7349 8.96188L81.9434 5.32256L82.9145 5.9477L86.4788 8.91216L88.4935 11.6831L89.1239 15.0371L80.1059 24.2407L79.3411 19.8622L77.223 15.8186L75.1774 13.2957L70.7349 8.96188Z" fill="#2A8ADA"/>
<path d="M215.263 81L220 70.8904L219.526 69.9041L217.158 66.2055L214.789 63.9863L211.711 63L202 70.3973L206.026 71.6301L209.579 74.0959L211.711 76.3151L215.263 81Z" fill="#2A8ADA"/>
<path d="M174.788 60.8517L185.83 62.5037L186.64 61.768L189.508 58.4419L190.958 55.5382L191.024 52.3058L181.161 45.1127L181.13 49.3234L179.781 53.4323L178.264 56.1089L174.788 60.8517Z" fill="#2A8ADA"/>
<path d="M289.788 64.8517L300.83 66.5037L301.64 65.768L304.508 62.4419L305.958 59.5382L306.024 56.3058L296.161 49.1127L296.13 53.3234L294.781 57.4323L293.264 60.1089L289.788 64.8517Z" fill="#2A8ADA"/>
<path d="M364.491 41.9847L355.11 35.9324L354.069 36.2692L350.086 38.1191L347.568 40.1679L346.177 43.0864L352.202 53.7028L353.965 49.8787L356.886 46.6896L359.371 44.8756L364.491 41.9847Z" fill="#2A8ADA"/>
<path d="M237.619 27.1127L228.238 21.0603L227.197 21.3971L223.213 23.2471L220.696 25.2958L219.305 28.2143L225.33 38.8308L227.093 35.0066L230.014 31.8176L232.499 30.0035L237.619 27.1127Z" fill="#2A8ADA"/>
<path d="M326.263 21L331 10.8904L330.526 9.90411L328.158 6.20548L325.789 3.9863L322.711 3L313 10.3973L317.026 11.6301L320.579 14.0959L322.711 16.3151L326.263 21Z" fill="#2A8ADA"/>
<path d="M9.73684 126L5 136.11L5.47368 137.096L7.84211 140.795L10.2105 143.014L13.2895 144L23 136.603L18.9737 135.37L15.4211 132.904L13.2895 130.685L9.73684 126Z" fill="#2A8ADA"/>
<path d="M399.158 57L396 65.4247L396.316 66.2466L397.895 69.3288L399.474 71.1781L401.526 72L408 65.8356L405.316 64.8082L402.947 62.7534L401.526 60.9041L399.158 57Z" fill="#2A8ADA"/>
<path d="M96 49C95.2 49.4 89 47.5 86 46.5L96 72H105.5L113.5 70.5L120.5 67.5L125 43C119.5 45 107.9 49 105.5 49C102.5 49 97 48.5 96 49Z" fill="#45CFF3"/>
<path d="M34.2664 32.8337C34.4199 32.3554 37.5987 30.5592 39.1689 29.7209L25.1147 24.0432L21.4023 27.9081L18.873 31.736L17.3313 35.7304L25.3215 46.9249C26.6749 43.923 29.6162 37.675 30.5541 36.6986C31.7264 35.4781 34.0746 33.4316 34.2664 32.8337Z" fill="#45CFF3"/>
<path d="M27.1605 104.965C26.9053 105.229 24.2447 105.326 22.9463 105.341L30.2988 113.95L33.9782 112.665L36.872 110.996L39.1739 108.877L37.5739 98.6978C35.7166 100.223 31.7695 103.355 30.84 103.68C29.6781 104.085 27.4796 104.634 27.1605 104.965Z" fill="#45CFF3"/>
<path d="M46.5915 137.143L32 142.945V212.742L53.8798 206.216L62.1041 202.773C74.2216 197.699 85.9402 191.721 97.161 184.889L103.607 180.965V339H188V74H119.235L110.71 89.6049C102.604 100.711 92.9921 110.635 82.1509 119.092L80.306 120.531C69.5252 126.952 58.2516 132.507 46.5915 137.143Z" fill="#6274FB" stroke="#E1E7F1" stroke-width="5"/>
<path d="M208.223 149.199L210.628 139.719C212.428 132.625 215.042 125.764 218.419 119.27L219.267 117.639C222.285 111.834 226.005 106.421 230.342 101.521L235.507 97.1051C241.112 92.312 247.281 88.2196 253.876 84.9185C260.084 81.8111 266.629 79.4258 273.38 77.8096L276.091 77.1607C284.863 75.0609 293.851 74 302.871 74H317.401C322.651 74 327.893 74.4139 333.079 75.2378L333.785 75.3501C340.009 76.339 346.115 77.9585 352.01 80.1837L352.641 80.4218C357.824 82.378 362.805 84.8307 367.515 87.7457L368.485 88.3456C373.492 91.4445 378.123 95.1139 382.285 99.2802C387.343 104.343 391.661 110.093 395.113 116.362L396.455 118.798C400.202 125.603 403.107 132.838 405.107 140.344L407.486 149.276C409.935 158.469 411.614 167.851 412.507 177.323L414 193.165V219.835L411.166 248.208L408.921 260.004C407.398 268.008 405.072 275.838 401.978 283.376L400.964 285.845C399.077 290.442 396.809 294.874 394.185 299.093L393.095 300.845C390.225 305.46 386.836 309.732 382.995 313.577C378.741 317.835 373.965 321.538 368.78 324.597L368.014 325.049C363.163 327.91 358.018 330.24 352.667 331.997L350.746 332.628C345.311 334.414 339.729 335.715 334.065 336.516L329.72 337.13C320.927 338.374 312.038 338.816 303.165 338.449L298.953 338.276C292.337 338.002 285.754 337.176 279.275 335.806L276.105 335.136C271.303 334.12 266.601 332.678 262.055 330.827C255.49 328.153 249.296 324.645 243.627 320.389L243.428 320.239C237.937 316.117 232.953 311.32 228.619 305.995C224.687 301.165 221.286 295.9 218.503 290.329L217.421 288.161C213.205 279.721 210.127 270.76 208.266 261.511L206.222 251.356C204.167 241.142 202.98 230.772 202.674 220.358L202 197.421L203.152 180.841C203.894 170.163 205.591 159.574 208.223 149.199Z" fill="#6274FB" stroke="#E1E7F1" stroke-width="5"/>
<path d="M333.5 206C333.5 226.221 330.505 244.417 325.743 257.469C323.359 264.005 320.578 269.119 317.617 272.552C314.649 275.992 311.729 277.5 309 277.5C306.271 277.5 303.351 275.992 300.383 272.552C297.422 269.119 294.641 264.005 292.257 257.469C287.495 244.417 284.5 226.221 284.5 206C284.5 185.779 287.495 167.583 292.257 154.531C294.641 147.995 297.422 142.881 300.383 139.448C303.351 136.008 306.271 134.5 309 134.5C311.729 134.5 314.649 136.008 317.617 139.448C320.578 142.881 323.359 147.995 325.743 154.531C330.505 167.583 333.5 185.779 333.5 206Z" fill="#F8F7FE" stroke="#E1E7F1" stroke-width="5"/>
<path d="M415.789 149.897C416.357 150.072 418.511 153.813 419.517 155.661L426.125 138.931L421.516 134.587L416.961 131.644L412.217 129.874L399.024 139.497C402.591 141.058 410.016 144.455 411.181 145.553C412.636 146.925 415.079 149.678 415.789 149.897Z" fill="#45CFF3"/>
<path d="M388.11 34.3965C388.515 34.5215 390.053 37.1921 390.771 38.5118L395.489 26.568L392.199 23.4668L388.947 21.3658L385.56 20.1017L376.141 26.9717C378.688 28.0865 383.989 30.5118 384.82 31.2952C385.859 32.2746 387.603 34.2402 388.11 34.3965Z" fill="#45CFF3"/>
<path d="M276.944 39.7977C277.051 40.2304 275.48 43.0617 274.681 44.4232L287.99 42.2001L288.999 37.5578L289.129 33.4919L288.432 29.7579L277.145 24.9999C277.521 27.8965 278.209 33.9827 277.954 35.1555C277.635 36.6214 276.81 39.2568 276.944 39.7977Z" fill="#45CFF3"/>
<path d="M332.128 47.2892C332.021 46.8565 333.592 44.0252 334.391 42.6637L321.083 44.8868L320.073 49.5291L319.943 53.595L320.64 57.329L331.927 62.087C331.551 59.1905 330.863 53.1042 331.118 51.9314C331.437 50.4655 332.262 47.8301 332.128 47.2892Z" fill="#45CFF3"/>
<path d="M198.128 17.7977C198.021 18.2304 199.592 21.0617 200.391 22.4232L187.083 20.2001L186.073 15.5578L185.943 11.4919L186.64 7.75792L197.927 2.99993C197.551 5.89645 196.863 11.9827 197.118 13.1555C197.437 14.6214 198.262 17.2568 198.128 17.7977Z" fill="#45CFF3"/>
<path d="M200.259 124.298C200.405 124.719 203.266 126.237 204.678 126.943L192.307 132.331L188.931 128.989L186.606 125.65L185.156 122.14L192.027 112C193.291 114.633 196.03 120.111 196.883 120.956C197.949 122.011 200.077 123.772 200.259 124.298Z" fill="#45CFF3"/>
<path d="M119.193 32.236C118.749 32.2789 116.601 34.7021 115.583 35.9084L113.255 22.6175L117.298 20.122L121.089 18.6478L124.842 18.0636L133.082 27.1274C130.225 27.7357 124.257 29.1101 123.235 29.7405C121.959 30.5286 119.747 32.1825 119.193 32.236Z" fill="#45CFF3"/>
<path d="M39.4842 213.859C39.6376 213.381 42.8164 211.585 44.3866 210.746L30.3324 205.069L26.6201 208.933L24.0908 212.761L22.5491 216.756L30.5393 227.95C31.8927 224.948 34.834 218.7 35.7719 217.724C36.9442 216.503 39.2924 214.457 39.4842 213.859Z" fill="#45CFF3"/>
<path d="M146 62V78H154V62H146Z" fill="#6274FB"/>
<path d="M146.65 27.9593L146.934 26.4833C146.939 26.458 146.942 26.4322 146.942 26.4064C146.942 26.1819 147.124 26 147.348 26H147.792C148.008 26 148.216 26.0823 148.373 26.2301L149.315 27.113L151.762 30.0809L153.593 32.699C154.102 33.4259 154.556 34.1893 154.953 34.983L155.131 35.3398C155.603 36.283 155.969 37.2749 156.225 38.2979L156.552 39.6056C156.621 39.8832 156.656 40.1683 156.656 40.4545V43.5367C156.656 43.7684 156.844 43.9562 157.076 43.9562C157.187 43.9562 157.293 43.9123 157.372 43.8335C158.122 43.0813 159.454 41.7322 159.622 41.5076C159.762 41.3218 160.122 40.7603 160.391 40.3353C160.517 40.1349 160.713 39.9876 160.94 39.9224C161.347 39.8063 161.781 39.9701 162.009 40.3255L162.83 41.6025C162.916 41.7369 162.992 41.8779 163.056 42.0243L164.235 44.7276C164.915 46.2852 165.404 47.9191 165.693 49.5938L165.725 49.7777C165.908 50.8413 166 51.9187 166 52.998C166 54.042 165.914 55.0841 165.742 56.1139L165.703 56.3487C165.408 58.1182 164.844 59.8321 164.031 61.4309C163.467 62.5402 162.786 63.5863 162.001 64.5518L160.587 66.2901L160.543 66.331C159.154 67.6242 157.505 68.6041 155.705 69.2043C154.711 69.5357 153.682 69.7481 152.638 69.837L152.26 69.8691C151.238 69.9562 150.21 69.9473 149.189 69.8426L147.831 69.7032L146.385 69.4515C145.079 69.2243 143.801 68.8559 142.575 68.3529L141.97 68.1049C140.596 67.5416 139.319 66.766 138.186 65.8066C137.401 65.1416 136.69 64.393 136.066 63.5742L135.903 63.3592C135.06 62.2522 134.383 61.0277 133.895 59.7248C133.498 58.6642 133.223 57.5603 133.103 56.4339C133.045 55.8874 133 55.4047 133 55.2344C133 55.1186 133.021 54.7437 133.052 54.2435C133.2 51.9054 133.798 49.6181 134.777 47.4897C135.223 46.5207 135.748 45.5898 136.345 44.7063L138.71 41.2108L143.604 34.9781L144.728 33.0605C145.653 31.4814 146.303 29.7563 146.65 27.9593Z" fill="#FFB319"/>
<path d="M148.377 51.7587L148.489 51.187C148.491 51.177 148.492 51.1669 148.492 51.1567C148.492 51.0702 148.562 51 148.649 51H148.828C148.913 51 148.994 51.0317 149.056 51.0888L149.427 51.43L150.391 52.5767L151.114 53.5907C151.313 53.8699 151.492 54.1636 151.647 54.4692L151.72 54.6113C151.905 54.9739 152.048 55.3558 152.149 55.7501L152.277 56.2542C152.305 56.3631 152.319 56.4751 152.319 56.5875V57.7717C152.319 57.8633 152.393 57.9376 152.485 57.9376C152.528 57.9376 152.57 57.9207 152.601 57.8902C152.897 57.5996 153.421 57.0784 153.488 56.9916C153.542 56.9201 153.683 56.7048 153.789 56.5409C153.84 56.462 153.917 56.4042 154.008 56.3789C154.168 56.334 154.338 56.398 154.429 56.537L154.75 57.0264C154.785 57.0796 154.815 57.1354 154.841 57.1934L155.306 58.2391C155.573 58.8385 155.765 59.4684 155.879 60.1146L155.892 60.1872C155.964 60.5979 156 61.0141 156 61.431C156 61.8344 155.966 62.237 155.899 62.6346L155.884 62.7187C155.767 63.4068 155.544 64.0726 155.223 64.6922C155.001 65.1188 154.735 65.5204 154.428 65.8903L153.867 66.5666L153.858 66.5748C153.306 67.0796 152.652 67.461 151.941 67.6936C151.552 67.821 151.149 67.9025 150.741 67.9366L150.587 67.9495C150.184 67.9831 149.78 67.9797 149.378 67.9392L148.843 67.8853L148.268 67.7872C147.757 67.7 147.256 67.5584 146.775 67.3649L146.526 67.2648C145.99 67.0491 145.49 66.7513 145.046 66.3821C144.735 66.1236 144.452 65.832 144.204 65.5125L144.14 65.4291C143.81 65.0048 143.545 64.5342 143.353 64.0324C143.196 63.6211 143.088 63.1924 143.04 62.7546C143.018 62.5451 143 62.3605 143 62.2951C143 62.251 143.008 62.1093 143.02 61.9198C143.079 61.0116 143.315 60.124 143.701 59.3001C143.876 58.9275 144.081 58.5701 144.315 58.2313L145.249 56.8769L147.178 54.4688L147.623 53.7225C147.986 53.1161 148.24 52.4517 148.377 51.7587Z" fill="#FFD819"/>
</svg>
