<svg width="65" height="65" viewBox="0 0 65 65" fill="none" xmlns="http://www.w3.org/2000/svg">
<path d="M32.5 0.5C26.171 0.5 19.9841 2.37677 14.7218 5.89297C9.45939 9.40917 5.35787 14.4069 2.93587 20.2541C0.513865 26.1014 -0.119842 32.5355 1.11489 38.7429C2.34961 44.9503 5.39732 50.6521 9.87259 55.1274C14.3479 59.6027 20.0497 62.6504 26.2571 63.8851C32.4645 65.1198 38.8986 64.4861 44.7459 62.0641C50.5931 59.6421 55.5908 55.5406 59.107 50.2782C62.6232 45.0159 64.5 38.829 64.5 32.5C64.491 24.0158 61.1167 15.8817 55.1175 9.88248C49.1183 3.88325 40.9842 0.508959 32.5 0.5ZM49.8169 11.7031L11.7 49.8169C10.4961 48.3726 9.44538 46.8073 8.56463 45.1461L45.1462 8.56461C46.8081 9.44532 48.3735 10.4972 49.8169 11.7031ZM53.2969 15.1831C54.5028 16.6265 55.5547 18.1919 56.4354 19.8538L19.8539 56.4354C18.1919 55.5547 16.6265 54.5028 15.1831 53.2969L53.2969 15.1831ZM32.5 5.42308C35.1098 5.42219 37.706 5.79944 40.2077 6.54308L6.54309 40.2077C5.34334 36.1674 5.10334 31.9028 5.84218 27.7533C6.58102 23.6039 8.27832 19.6843 10.7989 16.3064C13.3196 12.9285 16.5939 10.1857 20.3614 8.29631C24.1288 6.4069 28.2853 5.42304 32.5 5.42308ZM32.5 59.5769C29.8953 59.5763 27.3044 59.1991 24.8077 58.4569L58.4569 24.8077C59.6538 28.847 59.8916 33.11 59.1514 37.2574C58.4111 41.4048 56.7134 45.3222 54.1931 48.6982C51.6728 52.0741 48.3995 54.8154 44.6335 56.7039C40.8676 58.5925 36.7129 59.5762 32.5 59.5769Z" fill="#6274FB"/>
</svg>
